<svg width="48" height="75" viewBox="0 0 48 75" fill="none" xmlns="http://www.w3.org/2000/svg">
<rect x="1.5" y="1.5" width="45" height="45" rx="22.5" stroke="#555958" stroke-width="3"/>
<path d="M32.8035 30.9464C33.0501 31.193 33.1886 31.5274 33.1886 31.8761C33.1886 32.2248 33.0501 32.5592 32.8035 32.8058C32.557 33.0524 32.2226 33.1909 31.8739 33.1909C31.5252 33.1909 31.1907 33.0524 30.9442 32.8058L24 25.8594L17.0535 32.8036C16.807 33.0502 16.4726 33.1887 16.1239 33.1887C15.7752 33.1887 15.4407 33.0502 15.1942 32.8036C14.9476 32.557 14.8091 32.2226 14.8091 31.8739C14.8091 31.5252 14.9476 31.1908 15.1942 30.9442L22.1406 24L15.1964 17.0536C14.9498 16.807 14.8113 16.4726 14.8113 16.1239C14.8113 15.7752 14.9498 15.4408 15.1964 15.1942C15.4429 14.9477 15.7773 14.8091 16.126 14.8091C16.4747 14.8091 16.8092 14.9477 17.0557 15.1942L24 22.1406L30.9464 15.1931C31.1929 14.9466 31.5273 14.808 31.876 14.808C32.2247 14.808 32.5592 14.9466 32.8057 15.1931C33.0523 15.4397 33.1908 15.7741 33.1908 16.1228C33.1908 16.4715 33.0523 16.8059 32.8057 17.0525L25.8593 24L32.8035 30.9464Z" fill="#555958"/>
<path d="M21.5156 58.3281V61.5625H23.5469V62.7812H21.5156V66.1875H20.0312V58.3281H21.5156ZM11.1406 65.4688V59.2188H17.3594V60.4375H12.6094V64.2344C15.3359 64.2266 16.8672 64.1406 18.625 63.7656L18.7969 64.9844C16.9062 65.3672 15.25 65.4688 12.25 65.4688H11.1406ZM12.6094 72.1562V66.9375H21.6406V68.1406H14.0938V70.9531H21.8906V72.1562H12.6094ZM35.9844 58.3281V72.3281H34.4844V58.3281H35.9844ZM24.4844 68.5781C28.2031 66.8047 30.0234 64.2812 30.3125 61.0156H25.1562V59.8281H31.8125C31.8125 63.9297 30.0703 67.4766 25.2656 69.7812L24.4844 68.5781Z" fill="#555958"/>
</svg>
